<?xml version="1.0" standalone="no"?>
<!DOCTYPE svg PUBLIC "-//W3C//DTD SVG 20010904//EN"
 "http://www.w3.org/TR/2001/REC-SVG-20010904/DTD/svg10.dtd">
<svg version="1.0" xmlns="http://www.w3.org/2000/svg"
 width="292.000000pt" height="450.000000pt" viewBox="0 0 292.000000 450.000000"
 preserveAspectRatio="xMidYMid meet">

<g transform="translate(0.000000,450.000000) scale(0.100000,-0.100000)"
fill="#000000" stroke="none">
<path d="M1090 4185 c-82 -17 -137 -40 -231 -100 -175 -112 -293 -256 -344
-421 -25 -78 -27 -97 -22 -193 6 -132 15 -155 135 -344 l95 -147 -181 -373
c-100 -204 -191 -401 -203 -437 -26 -79 -35 -223 -20 -304 13 -72 41 -129 93
-190 111 -129 259 -170 613 -170 241 0 447 24 564 65 31 11 35 10 52 -12 34
-45 89 -165 99 -218 24 -128 6 -175 -111 -286 -209 -199 -244 -238 -283 -317
-74 -153 -89 -394 -27 -428 22 -11 97 8 161 40 120 61 270 189 345 295 94 132
135 268 135 455 0 198 -15 266 -101 456 l-51 112 81 77 c89 85 120 138 151
259 35 133 42 238 26 365 -9 63 -15 116 -13 117 1 1 34 12 72 24 254 83 394
180 462 319 24 48 28 68 28 141 0 69 -5 93 -23 127 -52 99 -139 159 -245 170
-45 5 -64 1 -101 -17 -26 -12 -51 -31 -57 -41 -11 -21 4 -28 17 -8 5 8 31 10
81 6 96 -7 149 -37 186 -105 34 -63 35 -113 1 -180 -44 -89 -148 -155 -305
-195 -77 -19 -113 -21 -459 -22 -206 0 -386 -4 -400 -9 -27 -9 -80 -54 -80
-69 0 -5 25 -6 58 -2 192 22 458 -131 521 -300 20 -53 22 -74 19 -185 -3 -108
-7 -133 -29 -180 -28 -60 -83 -130 -103 -130 -7 0 -183 240 -391 533 -208 292
-383 538 -388 544 -6 9 58 172 198 508 196 470 207 500 212 573 4 67 1 83 -19
122 -39 75 -105 98 -218 75z m53 -322 c-3 -26 -354 -753 -364 -753 -3 0 -26
38 -49 85 -70 136 -64 228 25 405 39 78 182 217 265 258 77 39 126 41 123 5z
m246 -1915 c73 -114 133 -210 133 -215 0 -4 -33 -19 -73 -32 -65 -22 -92 -25
-229 -25 -185 -1 -230 10 -342 84 -167 110 -240 238 -240 421 0 85 0 87 90
305 50 120 98 236 107 257 l16 39 202 -314 c112 -172 263 -406 336 -520z"/>
</g>
</svg>
